# xmcd
#
# Track frame offsets: 
#        150
#        12107
#        29513
#        44456
#        60394
#        77763
#        89647
#        102720
#        113431
#        126682
#        139369
#        155564
#        171572
#        184043
#        197830
#        213403
#        228831
#        241812
#        257144
#        270321
#        281156
#        298994
#        312530
#        326502
#        345732
#
# Disc length: 4772 seconds
#
# Revision: 4
# Processed by: cddbd v1.5.2PL0 Copyright (c) Steve Scherf et al.
# Submitted via: ExactAudioCopy v1.1
#
DISCID=8412a219
DTITLE=Various Artist - Back to The River - More Southern Soul Storie
DTITLE=s 1961-1978 - Disc 2
DYEAR=2015
DGENRE=R&B
TTITLE0=Joe Tex - The Only Girl (I've Ever Loved) (mono)
TTITLE1=Brook Benton - Rainy Night In Georgia
TTITLE2=John Fred and His Playboys - Loves Come In Time (mono)
TTITLE3=Joey Gilmore - Somebody Done Took My Baby And Gone (mono)
TTITLE4=C.P. Love - I Found All These Things (mono)
TTITLE5=Helene Smith - A Woman Will Do Wrong (mono)
TTITLE6=Steve Dixon - Depend On Me (mono)
TTITLE7=Esther Phillips - I'm In Love (stereo)
TTITLE8=Sam Dees - Easier To Say Than Do (mono)
TTITLE9=Terrie and Joy La Roy with The Bill Parker Show Band - Without L
TTITLE9=ove What Would Life Be (mono)
TTITLE10=Count Willie with LRL and The Dukes - I've Got To Tell You (mon
TTITLE10=o)
TTITLE11=Joe Wilson - You Need Me (mono)
TTITLE12=Joe Medwick - Nearer To You (mono)
TTITLE13=Della Humphrey - Your Love Is All I Need (mono)
TTITLE14=Toussaint McCall - Nothing Takes The Place Of You (mono)
TTITLE15=George Perkins - How Sweet It Would Be (mono)
TTITLE16=Warren Storm - Daydreaming (mono)
TTITLE17=Stanley Winston - No More Ghettos In America (mono)
TTITLE18=Little Beaver - Do Right Man (mono)
TTITLE19=Johnny Adams - (Sometimes) A Man Will Shed A Few Tears Too (m
TTITLE19=ono)
TTITLE20=Reuben Bell - Asking For The Truth
TTITLE21=Joe Valentine and The Imperials - I Can't Stand To See You Go (
TTITLE21=mono)
TTITLE22=Don Hollinger - You Got Everything I Need (mono)
TTITLE23=Charles Crawford - A Sad Sad Song (mono)
TTITLE24=Aaron Neville - Tell It Like It Is (mono)
EXTD=
EXTT0=
EXTT1=
EXTT2=
EXTT3=
EXTT4=
EXTT5=
EXTT6=
EXTT7=
EXTT8=
EXTT9=
EXTT10=
EXTT11=
EXTT12=
EXTT13=
EXTT14=
EXTT15=
EXTT16=
EXTT17=
EXTT18=
EXTT19=
EXTT20=
EXTT21=
EXTT22=
EXTT23=
EXTT24=
PLAYORDER=
